<svg xmlns="http://www.w3.org/2000/svg" viewBox="0 0 24 24"><path d="M12 2a10 10 0 1 0 0 20A10 10 0 0 0 12 2zm0 18a8 8 0 1 1 0-16 8 8 0 0 1 0 16zm-1-9H7l5-5 5 5h-4v5h-2v-5z" style="display:none"/><path d="M12 2C6.48 2 2 6.48 2 12s4.48 10 10 10 10-4.48 10-10S17.52 2 12 2zm-1 14H9V8h2v8zm4 0h-2V8h2v8z" style="display:none"/><circle cx="12" cy="12" r="10" fill="none" stroke="currentColor" stroke-width="1.5"/><line x1="2" y1="12" x2="22" y2="12" stroke="currentColor" stroke-width="1.5"/><path d="M12 2a15.3 15.3 0 0 1 4 10 15.3 15.3 0 0 1-4 10 15.3 15.3 0 0 1-4-10 15.3 15.3 0 0 1 4-10z" fill="none" stroke="currentColor" stroke-width="1.5"/></svg>
