<svg xmlns="http://www.w3.org/2000/svg" viewBox="0 0 24 24"><path d="M12.555 18.685c-.857-.26-1.718-.54-2.555-.898.16-.525.286-1.057.376-1.596.087-.528.127-1.062.119-1.596-.008-.533-.083-1.062-.222-1.573-.14-.512-.358-.99-.648-1.418-.289-.43-.654-.795-1.087-1.07-.432-.277-.943-.418-1.532-.418-.59 0-1.1.14-1.532.418-.432.276-.797.64-1.086 1.07-.29.428-.508.906-.648 1.418-.14.511-.215 1.04-.222 1.573-.008.534.032 1.068.119 1.596.086.539.212 1.071.376 1.596C2.49 17.513.986 15.063.986 12.22c0-3.066 1.25-5.83 3.26-7.83A11.025 11.025 0 0 1 12.014.986c3.06 0 5.83 1.248 7.834 3.26a11.024 11.024 0 0 1 3.16 7.974c0 3.066-1.25 5.83-3.26 7.83a11.025 11.025 0 0 1-7.774 3.163c-.81 0-1.59-.092-2.35-.262.606-.51 1.124-1.11 1.54-1.79.41-.673.7-1.41.848-2.176l.343.7zm1.29 2.91c-.247.392-.557.736-.924 1.02a11.056 11.056 0 0 0 4.322-2.375c-.81-.22-1.69-.358-2.615-.458-.27.637-.49 1.25-.783 1.813z"/></svg>
