<svg xmlns="http://www.w3.org/2000/svg" viewBox="0 0 192 192"><path d="M141.537 88.988a66.667 66.667 0 0 0-2.518-1.143c-1.482-27.307-16.403-42.94-41.457-43.1h-.34c-14.986 0-27.449 6.396-35.12 18.035l13.6 9.325c5.73-8.694 14.724-10.548 21.52-10.548h.23c8.314.053 14.59 2.474 18.655 7.195 2.958 3.408 4.94 8.136 5.928 14.102-7.403-1.258-15.455-1.643-24.1-.98-24.204 1.395-39.752 15.507-38.664 35.112.545 9.939 5.52 18.498 14.026 24.095 7.122 4.715 16.292 7.026 25.855 6.517 12.59-.678 22.509-5.498 29.487-14.33 5.31-6.762 8.678-15.53 10.2-26.6 6.12 3.695 10.648 8.573 13.069 14.49 3.93 9.673 4.164 25.558-8.134 37.786-10.75 10.69-23.67 15.312-43.27 15.453-21.646-.157-38.016-7.102-48.66-20.647C26.847 127.405 21.74 111.679 21.74 96.049c0-15.63 5.107-31.356 14.78-44.287C47.12 37.38 64.61 30.08 96.044 30.08c31.773 0 48.783 7.496 58.702 14.618 2.66 1.89 6.3 1.273 8.192-1.389 1.89-2.66 1.273-6.3-1.389-8.192C149.65 26.9 130.094 18 96.044 18 59.947 18 39.012 26.96 26.296 43.96 14.53 59.74 8 79.11 8 96.049c0 16.939 6.53 36.307 18.296 52.088 12.716 17 33.651 25.96 60.747 25.96.26 0 .521-.002.78-.005 23.304-.17 39.284-6.327 52.494-20.48 16.574-17.488 16.063-39.734 10.63-53.46-3.93-9.666-11.503-17.423-21.41-22.164zM99.944 138.13c-9.487.511-19.257-1.921-26.144-6.587-5.545-3.673-8.636-8.94-8.916-14.832-.636-11.597 8.586-21.095 26.43-22.152 7.972-.46 15.578-.213 22.742 1.103-1.55 22.21-6.99 41.745-14.112 42.468z"/></svg>
